<svg xmlns="http://www.w3.org/2000/svg" viewBox="0 0 200 200" enable-background="new 0 0 200 200"><path fill="#fdca5c" d="m100 200c-55.2 0-100-44.8-100-100 0-55.2 44.8-100 100-100 55.2 0 100 44.8 100 100 0 55.2-44.8 100-100 100"/><circle fill="#ffdb79" cx="100" cy="100" r="65"/><path fill="#fff" d="m39.3 147.6l6.6-2v6.7l-6.6-2z"/><path fill="#cccbca" d="m39.3 149.4l6.6.8v2.1l-6.6-2z"/><path fill="#f77b55" d="m45.9 145.6h108.1v6.7h-108.1z"/><path fill="#ee643c" d="m45.9 150.2h108.1v2.1h-108.1z"/><path fill="#353f49" d="m39.3 150.3l-4.3-1.4 4.3-1.3z"/><path fill="#232e38" d="m39.3 150.3l-4.3-1.4 4.3.5z"/><path fill="#fff" d="m154.1 145.6h3.7v6.7h-3.7z"/><path fill="#cccbca" d="m154.1 150.2h3.7v2.1h-3.7z"/><path fill="#353f49" d="m161.6 152.3c.9 0 1.7-.3 2.4-1 .6-.7 1-1.5 1-2.4 0-.9-.3-1.7-1-2.4-.7-.7-1.5-1-2.4-1h-3.9v6.7h3.9z"/><path fill="#232e38" d="m157.7 150.2h1.8c.9 0 1.7-.3 2.4-1 .7-.7 1-1.5 1-2.4 0-.4-.1-.7-.2-1.1.5.2.9.4 1.3.8.6.7 1 1.5 1 2.4 0 .9-.3 1.7-1 2.4-.7.7-1.5 1-2.4 1h-3.9v-2.1"/><path fill="#e6e5e5" d="m113.3 143.6h-26.6l2.4-13.6h21.8z"/><path fill="#cccbca" d="m113.3 143.6l-2.4-13.6h-21.8l17.4 13.6z"/><g fill="#fff"><path d="m120.5 145.6h-41v-.7c0-.3.1-.6.4-.9.2-.2.6-.4.9-.4h38.4c.3 0 .6.1.9.4.2.2.4.6.4.9v.7"/><path d="m148 121.2v6.5c0 1.3-1.1 2.3-2.3 2.3h-91.4c-1.3 0-2.3-1-2.3-2.3v-6.5h96"/></g><path fill="#353f49" d="m148 121.2v-61.3c0-1.3-1.1-2.3-2.3-2.3h-91.4c-1.3 0-2.3 1.1-2.3 2.3v61.3h96"/><path fill="#fab83e" d="m56.9 62.4h86.3v53.9h-86.3z"/><path fill="#fff" d="m64.3 46.9h53v69.4h-53z"/><path fill="#353f49" d="m64.3 39.4h53v7.5h-53z"/><g fill="#f77b55"><path d="m68.4 51h20.4v20.9h-20.4z"/><path d="m92.9 51h20.4v20.9h-20.4z"/><path d="m68.4 100.7h44.9v2.1h-44.9z"/><path d="m68.4 104.9h44.9v2.1h-44.9z"/><path d="m68.4 109.1h44.9v2.1h-44.9z"/><path d="m68.4 76h44.9v20.6h-44.9z"/></g><path fill="#353f49" d="m124.8 39.4v76.9h10.8v-76.9h-10.8m5.4 6.1c-.7 0-1.3-.6-1.3-1.3 0-.7.6-1.4 1.3-1.4.7 0 1.3.6 1.3 1.4.1.7-.5 1.3-1.3 1.3"/><g fill="#fff"><path d="m124.8 40.5h1.7v.6h-1.7z"/><path d="m124.8 42.2h1.7v.6h-1.7z"/><path d="m124.8 43.9h1.7v.6h-1.7z"/><path d="m124.8 45.6h1.7v.6h-1.7z"/><path d="m124.8 47.3h1.7v.6h-1.7z"/><path d="m124.8 49h1.7v.6h-1.7z"/><path d="m124.8 50.6h1.7v.6h-1.7z"/><path d="m124.8 52.3h1.7v.6h-1.7z"/><path d="m124.8 54h1.7v.6h-1.7z"/><path d="m124.8 55.7h1.7v.6h-1.7z"/><path d="m124.8 57.4h1.7v.6h-1.7z"/><path d="m124.8 59.1h1.7v.6h-1.7z"/><path d="m124.8 60.8h1.7v.6h-1.7z"/><path d="m124.8 62.4h1.7v.6h-1.7z"/><path d="m124.8 64.1h1.7v.6h-1.7z"/><path d="m124.8 65.8h1.7v.6h-1.7z"/><path d="m124.8 67.5h1.7v.6h-1.7z"/><path d="m124.8 69.2h1.7v.6h-1.7z"/><path d="m124.8 70.9h1.7v.6h-1.7z"/><path d="m124.8 72.5h1.7v.6h-1.7z"/><path d="m124.8 74.2h1.7v.6h-1.7z"/><path d="m124.8 75.9h1.7v.6h-1.7z"/><path d="m124.8 77.6h1.7v.6h-1.7z"/><path d="m124.8 79.3h1.7v.6h-1.7z"/><path d="m124.8 81h1.7v.6h-1.7z"/><path d="m124.8 82.7h1.7v.6h-1.7z"/><path d="m124.8 84.3h1.7v.6h-1.7z"/><path d="m124.8 86h1.7v.6h-1.7z"/><path d="m124.8 87.7h1.7v.6h-1.7z"/><path d="m124.8 89.4h1.7v.6h-1.7z"/><path d="m124.8 91.1h1.7v.6h-1.7z"/><path d="m124.8 92.8h1.7v.6h-1.7z"/><path d="m124.8 94.4h1.7v.6h-1.7z"/><path d="m124.8 96.1h1.7v.6h-1.7z"/><path d="m124.8 97.8h1.7v.6h-1.7z"/><path d="m124.8 99.5h1.7v.6h-1.7z"/><path d="m124.8 101.2h1.7v.6h-1.7z"/><path d="m124.8 102.9h1.7v.6h-1.7z"/><path d="m124.8 104.6h1.7v.6h-1.7z"/><path d="m124.8 106.2h1.7v.6h-1.7z"/><path d="m124.8 107.9h1.7v.6h-1.7z"/><path d="m124.8 109.6h1.7v.6h-1.7z"/><path d="m124.8 111.3h1.7v.6h-1.7z"/><path d="m124.8 113h1.7v.6h-1.7z"/><path d="m124.8 114.7h1.7v.6h-1.7z"/></g></svg>