<svg xmlns="http://www.w3.org/2000/svg" viewBox="0 0 200 200" enable-background="new 0 0 200 200" xmlns:xlink="http://www.w3.org/1999/xlink"><path fill="#f77b55" d="m100 200c-55.2 0-100-44.8-100-100 0-55.2 44.8-100 100-100 55.2 0 100 44.8 100 100 0 55.2-44.8 100-100 100"/><circle fill="#ff916e" cx="100" cy="100" r="65"/><path fill="#e6e5e5" d="m125.2 145.7h-28.7l2.6-14.6h23.4z"/><path fill="#cccbca" d="m125.2 145.7l-2.7-14.6h-23.4l18.7 14.6z"/><g fill="#fff"><path d="m132.8 147.9h-44v-.8c0-.3.1-.7.4-1 .3-.3.6-.4 1-.4h41.4c.3 0 .7.1 1 .4.3.3.4.6.4 1v.8z"/><path d="m162.5 121.6v6.9c0 1.4-1.1 2.5-2.5 2.5h-98.4c-1.4 0-2.5-1.1-2.5-2.5v-6.9h103.4"/></g><path fill="#232e38" d="m162.5 121.6v-66c0-1.4-1.1-2.5-2.5-2.5h-98.4c-1.4 0-2.5 1.1-2.5 2.5v66h103.4"/><path fill="#fff" d="m64.3 58.3h92.9v58.1h-92.9z"/><path fill="#e6e5e5" d="m64.3 64.8h68.5v51.6h-68.5z"/><path fill="#fff" d="m70.8 71.3h55.6v38.7h-55.6z"/><path fill="#474f59" d="m132.8 64.8h24.4v6.5h-24.4z"/><g fill="#cccbca"><path d="m132.8 71.3h24.4v16.1h-24.4z"/><path d="m137.2 91.7h15.8v2.1h-15.8z"/><path d="m137.2 96h15.8v2.2h-15.8z"/><path d="m137.2 100.3h15.8v2.2h-15.8z"/><path d="m137.2 104.6h15.8v2.2h-15.8z"/></g><g fill="#474f59"><path d="m73 61.6c0 .6-.5 1.1-1.1 1.1-.6 0-1.1-.5-1.1-1.1 0-.6.5-1.1 1.1-1.1.6 0 1.1.5 1.1 1.1"/><circle cx="76.2" cy="61.6" r="1.1"/><circle cx="80.5" cy="61.6" r="1.1"/></g><path fill="#cccbca" d="m115.6 60.5h10.8v2.2h-10.8z"/><g fill="#474f59"><path d="m118.4 102.9h1.6v1.6h-1.6z"/><path d="m116.8 104.5h-1.6v-1.6h1.6v1.6m-3.3 0h-1.6v-1.6h1.6v1.6m-3.2 0h-1.6v-1.6h1.6v1.6m-3.3 0h-1.6v-1.6h1.6v1.6m-3.3 0h-1.6v-1.6h1.6v1.6m-3.2 0h-1.6v-1.6h1.6v1.6m-3.3 0h-1.6v-1.6h1.6v1.6"/><path d="m92.3 102.9h1.6v1.6h-1.6z"/><path d="m93.9 101.2h-1.6v-1.6h1.6v1.6m0-3.2h-1.6v-1.6h1.6v1.6m0-3.3h-1.6v-1.6h1.6v1.6m0-3.3h-1.6v-1.6h1.6v1.6m0-3.2h-1.6v-1.6h1.6v1.6m0-3.3h-1.6v-1.6h1.6v1.6m0-3.3h-1.6v-1.6h1.6v1.6"/><path d="m92.3 76.8h1.6v1.6h-1.6z"/><path d="m116.8 78.4h-1.6v-1.6h1.6v1.6m-3.3 0h-1.6v-1.6h1.6v1.6m-3.2 0h-1.6v-1.6h1.6v1.6m-3.3 0h-1.6v-1.6h1.6v1.6m-3.3 0h-1.6v-1.6h1.6v1.6m-3.2 0h-1.6v-1.6h1.6v1.6m-3.3 0h-1.6v-1.6h1.6v1.6"/><path d="m119.2 78.4h-.8v-1.6h1.6v1.6z"/><path d="m120 101.2h-1.6v-1.6h1.6v1.6m0-3.2h-1.6v-1.6h1.6v1.6m0-3.3h-1.6v-1.6h1.6v1.6m0-3.3h-1.6v-1.6h1.6v1.6m0-3.2h-1.6v-1.6h1.6v1.6m0-3.3h-1.6v-1.6h1.6v1.6m0-3.3h-1.6v-1.6h1.6v1.6"/><path d="m109.8 99.6l-3.6-9 9 3.6-3.5 1.9z"/><path transform="matrix(.7071-.7071.7071.7071-35.71 108.23)" d="m112.1 95.1h1.4v4.2h-1.4z"/></g><path fill="#f77b55" d="m37.5 77.9h48.5v70h-48.5z"/><path fill="#ffdb79" d="m37.5 77.9h48.5v70h-48.5z"/><path fill="#232e38" d="m37.5 71.3h48.5v6.6h-48.5z"/><path fill="#353f49" d="m44.3 85.9h8.3v1.9h-8.3z"/><path fill="#fff" d="m74.2 95.4h4.9v1.9h-4.9z"/><path fill="#353f49" d="m55.3 85.9h12.4v1.9h-12.4z"/><g fill="#fff"><path d="m55.3 95.4h16.2v1.9h-16.2z"/><path d="m49.8 90.7h24.4v1.9h-24.4z"/></g><path fill="#353f49" d="m44.3 100.1h8.3v1.9h-8.3z" id="0"/><path fill="#fff" d="m74.2 109.6h4.9v1.9h-4.9z" id="1"/><path fill="#353f49" d="m55.3 100.1h12.4v1.9h-12.4z" id="2"/><path fill="#fff" d="m55.3 109.6h16.2v1.9h-16.2z" id="3"/><path fill="#fff" d="m49.8 104.9h24.4v1.9h-24.4z" id="4"/><path fill="#353f49" d="m44.3 114.3h8.3v1.9h-8.3z" id="5"/><path fill="#fff" d="m74.2 123.8h4.9v1.9h-4.9z" id="6"/><path fill="#353f49" d="m55.3 114.3h12.4v1.9h-12.4z" id="7"/><path fill="#fff" d="m55.3 123.8h16.2v1.9h-16.2z" id="8"/><path fill="#fff" d="m49.8 119h24.4v1.9h-24.4z" id="9"/><use xlink:href="#0"/><use xlink:href="#1"/><use xlink:href="#2"/><use xlink:href="#3"/><use xlink:href="#4"/><use xlink:href="#5"/><use xlink:href="#6"/><use xlink:href="#7"/><use xlink:href="#8"/><use xlink:href="#9"/><path fill="#353f49" d="m44.3 128.5h8.3v1.9h-8.3z"/><path fill="#fff" d="m74.2 138h4.9v1.9h-4.9z"/><path fill="#353f49" d="m55.3 128.5h12.4v1.9h-12.4z"/><g fill="#fff"><path d="m55.3 138h16.2v1.9h-16.2z"/><path d="m49.8 133.2h24.4v1.9h-24.4z"/></g></svg>