<svg xmlns="http://www.w3.org/2000/svg" viewBox="0 0 32 32"><path d="m16 0c-8.837 0-16 7.163-16 16s7.163 16 16 16 16-7.163 16-16-7.163-16-16-16m9.502 25.502c-1.235 1.235-2.672 2.204-4.272 2.881-.406.172-.819.323-1.238.453v-2.398c0-1.26-.432-2.188-1.297-2.781.542-.052 1.039-.125 1.492-.219s.932-.229 1.438-.406.958-.388 1.359-.633.786-.563 1.156-.953.68-.833.93-1.328.448-1.089.594-1.781.219-1.456.219-2.289c0-1.615-.526-2.99-1.578-4.125.479-1.25.427-2.609-.156-4.078l-.391-.047c-.271-.031-.758.083-1.461.344s-1.492.688-2.367 1.281c-1.24-.344-2.526-.516-3.859-.516-1.344 0-2.625.172-3.844.516-.552-.375-1.075-.685-1.57-.93s-.891-.411-1.188-.5-.573-.143-.828-.164-.419-.026-.492-.016-.125.021-.156.031c-.583 1.479-.635 2.839-.156 4.078-1.052 1.135-1.578 2.51-1.578 4.125 0 .833.073 1.596.219 2.289s.344 1.286.594 1.781.56.938.93 1.328.755.708 1.156.953.854.456 1.359.633.984.313 1.438.406.95.167 1.492.219c-.854.583-1.281 1.51-1.281 2.781v2.445c-.472-.14-.937-.306-1.394-.5-1.6-.677-3.037-1.646-4.272-2.881s-2.204-2.672-2.881-4.272c-.7-1.655-1.055-3.414-1.055-5.23s.355-3.575 1.055-5.23c.677-1.6 1.646-3.037 2.881-4.272s2.672-2.204 4.272-2.881c1.655-.7 3.415-1.055 5.23-1.055s3.575.355 5.23 1.055c1.6.677 3.037 1.646 4.272 2.881s2.204 2.672 2.881 4.272c.7 1.655 1.055 3.415 1.055 5.23s-.355 3.575-1.055 5.23c-.677 1.6-1.646 3.037-2.881 4.272z"/></svg>
