<svg xmlns="http://www.w3.org/2000/svg" viewBox="0 0 200 200" enable-background="new 0 0 200 200"><path fill="#474f59" d="m100 200c-55.2 0-100-44.8-100-100 0-55.2 44.8-100 100-100 55.2 0 100 44.8 100 100 0 55.2-44.8 100-100 100"/><circle fill="#353f49" cx="100" cy="100" r="65"/><path fill="#fff" d="M40,56.3v64.4c0,5.3,4.3,9.5,9.5,9.5h101c5.3,0,9.5-4.3,9.5-9.5V56.3H40z"/><g fill="#cccbca"><path d="m49.5 46.8v64.4c-5.3 0-9.5 4.3-9.5 9.5v-64.4c0-5.2 4.3-9.5 9.5-9.5"/><path d="m150.5 46.8v64.4c5.3 0 9.5 4.3 9.5 9.5v-64.4c0-5.2-4.3-9.5-9.5-9.5"/></g><g fill="#f2f2f2"><path d="m57.1 117.9h85.7v.3h-85.7z"/><path d="m57.1 113.4h85.7v.3h-85.7z"/><path d="m57.1 108.9h85.7v.3h-85.7z"/><path d="m57.1 104.4h85.7v.3h-85.7z"/><path d="m57.1 99.9h85.7v.3h-85.7z"/><path d="m57.1 95.4h85.7v.3h-85.7z"/><path d="m57.1 90.8h85.7v.3h-85.7z"/><path d="m57.1 86.3h85.7v.3h-85.7z"/><path d="m57.1 81.8h85.7v.3h-85.7z"/><path d="m57.1 77.3h85.7v.3h-85.7z"/><path d="m57.1 72.8h85.7v.3h-85.7z"/><path d="m57.1 68.3h85.7v.3h-85.7z"/><path d="m133.7 63.9h.3v58.6h-.3z"/><path d="m138.2 63.9h.3v58.6h-.3z"/><path d="m129.2 63.9h.3v58.6h-.3z"/><path d="m124.6 63.9h.3v58.6h-.3z"/><path d="m120.1 63.9h.3v58.6h-.3z"/><path d="m115.6 63.9h.3v58.6h-.3z"/><path d="m111.1 63.9h.3v58.6h-.3z"/><path d="m106.6 63.9h.3v58.6h-.3z"/><path d="m102.1 63.9h.3v58.6h-.3z"/><path d="m97.6 63.9h.3v58.6h-.3z"/><path d="m93.1 63.9h.3v58.6h-.3z"/><path d="m88.6 63.9h.3v58.6h-.3z"/><path d="m84 63.9h.3v58.6h-.3z"/><path d="m79.5 63.9h.3v58.6h-.3z"/><path d="m75 63.9h.3v58.6h-.3z"/><path d="m70.5 63.9h.3v58.6h-.3z"/><path d="m66 63.9h.3v58.6h-.3z"/><path d="m61.5 63.9h.3v58.6h-.3z"/><path d="M143.8,123.5H56.2V63h87.5V123.5z M58,121.7H142V64.8H58V121.7z"/><path d="m144.7 64.8h-2.7v-2.7h1.8v.9h.9z"/><path d="m143.8 124.4h-1.8v-2.7h2.7v1.8h-.9z"/><path d="m58 64.8h-2.7v-1.8h.9v-.9h1.8z"/><path d="m58 124.4h-1.8v-.9h-.9v-1.8h2.7z"/></g><g fill="#474f59"><path d="m102.3 114.5h-4.6l-.9-4.4c-.9-.2-1.7-.4-2.5-.7l-2.9 3.4-4-2.3 1.4-4.2c-.7-.6-1.3-1.2-1.9-1.9l-4.2 1.4-2.3-4 3.4-2.9c-.3-.8-.5-1.7-.7-2.5l-4.4-.9v-4.5l4.4-.9c.2-.9.4-1.7.7-2.5l-3.4-2.9 2.3-4 4.2 1.4c.6-.7 1.2-1.3 1.9-1.9l-1.4-4.2 4-2.3 2.9 3.4c.8-.3 1.7-.5 2.5-.7l.9-4.4h4.6l.9 4.4c.9.2 1.7.4 2.5.7l2.9-3.3 4 2.3-1.4 4.2c.7.6 1.3 1.2 1.9 1.9l4.2-1.4 2.3 4-3.4 2.9c.3.8.5 1.7.7 2.5l4.4.9v4.6l-4.4.9c-.2.9-.4 1.7-.7 2.5l3.3 2.9-2.3 4-4.2-1.4c-.6.7-1.2 1.3-1.9 1.9l1.4 4.2-4 2.3-2.9-3.4c-.8.3-1.7.5-2.5.7l-.8 4.2m-3.1-1.8h1.6l.8-4.2.6-.1c1.2-.2 2.3-.5 3.4-.9l.6-.2 2.8 3.2 1.4-.8-1.4-4 .5-.4c.9-.7 1.8-1.6 2.5-2.5l.4-.5 4 1.4.8-1.4-3.2-2.8.2-.6c.4-1.1.7-2.2.9-3.4l.1-.6 4.2-.8v-1.6l-4.2-.8-.1-.6c-.2-1.2-.5-2.3-.9-3.4l-.2-.6 3.2-2.8-.8-1.4-4 1.4-.4-.5c-.7-.9-1.5-1.7-2.5-2.5l-.5-.4 1.4-4-1.4-.9-2.8 3.2-.6-.2c-1.1-.4-2.2-.7-3.4-.9l-.6-.1-.8-4.2h-1.6l-.8 4.2-.6.1c-1.2.2-2.3.5-3.4.9l-.6.2-2.8-3.2-1.4.8 1.4 4-.5.4c-.9.7-1.7 1.6-2.5 2.5l-.4.5-4-1.4-.8 1.4 3.2 2.8-.2.6c-.4 1.1-.7 2.2-.9 3.4l-.1.6-4.2.8v1.6l4.2.8.1.6c.2 1.2.5 2.3.9 3.4l.2.6-3.2 2.8.8 1.4 4-1.4.4.5c.7.9 1.6 1.7 2.5 2.5l.5.4-1.4 4 1.4.8 2.8-3.2.6.2c1.1.4 2.2.7 3.4.9l.6.1.8 4.3"/><path d="m100 105.4c-6.7 0-12.2-5.5-12.2-12.2 0-6.7 5.5-12.2 12.2-12.2 6.7 0 12.2 5.5 12.2 12.2 0 6.8-5.5 12.2-12.2 12.2m0-22.5c-5.7 0-10.4 4.7-10.4 10.4 0 5.7 4.7 10.4 10.4 10.4 5.7 0 10.4-4.7 10.4-10.4 0-5.8-4.7-10.4-10.4-10.4"/><path d="m100 96.4c-1.7 0-3.2-1.4-3.2-3.2 0-1.7 1.4-3.2 3.2-3.2 1.7 0 3.2 1.4 3.2 3.2 0 1.8-1.5 3.2-3.2 3.2m0-4.5c-.8 0-1.4.6-1.4 1.4 0 .8.6 1.4 1.4 1.4.7 0 1.4-.6 1.4-1.4 0-.8-.6-1.4-1.4-1.4"/><path d="m100.1 119h-.1c-.9 0-1.9 0-2.8-.1l.2-1.8c.9.1 1.7.1 2.6.1h.1v1.8m2.8-.2l-.2-1.8c.9-.1 1.7-.2 2.6-.4l.4 1.8c-.9.1-1.9.3-2.8.4m-8.4-.4c-.9-.2-1.8-.4-2.7-.7l.6-1.7c.8.3 1.7.5 2.5.7l-.4 1.7m13.8-.8l-.6-1.7c.8-.3 1.6-.6 2.4-1l.8 1.6c-.8.4-1.7.8-2.6 1.1m-19.1-1c-.8-.4-1.7-.8-2.5-1.3l.9-1.5c.7.4 1.5.8 2.3 1.2l-.7 1.6m24.2-1.4l-.9-1.5c.7-.4 1.5-.9 2.1-1.5l1.1 1.4c-.8.6-1.5 1.1-2.3 1.6m-28.9-1.5c-.7-.6-1.5-1.2-2.1-1.8l1.2-1.3c.6.6 1.3 1.2 2 1.7l-1.1 1.4m33.3-1.9l-1.2-1.3c.6-.6 1.2-1.2 1.8-1.9l1.4 1.2c-.7.7-1.4 1.4-2 2m-37.4-1.9c-.6-.7-1.2-1.4-1.7-2.2l1.5-1c.5.7 1 1.4 1.6 2.1l-1.4 1.1m40.9-2.3l-1.5-1c.5-.7.9-1.5 1.3-2.2l1.6.8c-.4.8-.8 1.6-1.4 2.4m-44-2.3c-.4-.8-.8-1.7-1.2-2.5l1.7-.7c.3.8.7 1.6 1.1 2.3l-1.6.9m46.6-2.6l-1.7-.7c.3-.8.6-1.6.8-2.5l1.7.5c-.1.9-.4 1.8-.8 2.7m-48.7-2.5c-.2-.9-.5-1.8-.6-2.7l1.8-.3c.1.8.3 1.7.6 2.5l-1.8.5m50.2-2.9l-1.8-.3c.1-.9.2-1.7.3-2.6l1.8.1c-.1.9-.2 1.9-.3 2.8m-51.1-2.6c0-.5 0-1 0-1.5 0-.4 0-.9 0-1.3l1.8.1c0 .4 0 .8 0 1.2 0 .5 0 .9 0 1.4l-1.8.1m49.6-2.9c0-.9-.1-1.7-.3-2.6l1.8-.3c.2.9.3 1.8.3 2.8l-1.8.1m-47.5-2.4l-1.8-.3c.1-.9.3-1.8.6-2.7l1.7.5c-.2.8-.4 1.7-.5 2.5m46.6-2.6c-.2-.8-.5-1.7-.8-2.4l1.7-.7c.3.9.6 1.7.9 2.6l-1.8.5m-45.2-2.3l-1.7-.7c.3-.9.7-1.7 1.2-2.5l1.6.8c-.5.8-.8 1.6-1.1 2.4m43.3-2.5c-.4-.8-.9-1.5-1.3-2.2l1.5-1c.5.8 1 1.6 1.4 2.4l-1.6.8m-40.9-2.1l-1.5-1c.5-.8 1.1-1.5 1.7-2.2l1.4 1.2c-.6.6-1.1 1.3-1.6 2m38-2.2c-.6-.7-1.2-1.3-1.8-1.9l1.2-1.3c.7.6 1.3 1.3 1.9 2l-1.3 1.2m-34.7-1.8l-1.2-1.3c.7-.6 1.4-1.2 2.1-1.8l1.1 1.4c-.7.6-1.4 1.2-2 1.7m30.9-1.7c-.7-.5-1.4-1-2.1-1.4l.9-1.5c.8.5 1.6 1 2.3 1.6l-1.1 1.3m-26.8-1.4l-.9-1.5c.8-.5 1.6-.9 2.5-1.3l.8 1.6c-.9.4-1.6.8-2.4 1.2m22.4-1.3c-.8-.4-1.6-.7-2.4-1l.6-1.7c.9.3 1.7.6 2.6 1l-.8 1.7m-17.7-.9l-.6-1.7c.9-.3 1.8-.6 2.7-.8l.4 1.8c-.8.2-1.7.4-2.5.7m12.8-.7c-.8-.2-1.7-.3-2.6-.4l.2-1.8c.9.1 1.8.2 2.7.4l-.3 1.8m-7.8-.4l-.2-1.8c.9-.1 1.9-.2 2.8-.2v1.8c-.8 0-1.7.1-2.6.2"/></g><path fill="#fff" d="m56 50.5l-1.8 5.8h5.9l-1.8-5.8z"/><path fill="#cccbca" d="m57.6 50.5l.6 5.8h1.9l-1.8-5.8z"/><path fill="#474f59" d="m54.2 56.3h5.9v59.5h-5.9z"/><path fill="#232e38" d="m58.2 56.3h1.8v59.5h-1.8z"/><path fill="#656a73" d="m58.3 50.5l-1.2-3.7-1.1 3.7z"/><path fill="#232e38" d="m58.3 50.5l-1.2-3.7.5 3.7z"/><path fill="#f2f2f2" d="m54.2 115.8h5.9v2.2h-5.9z"/><path fill="#cccbca" d="m58.2 115.8h1.8v2.2h-1.8z"/><path fill="#f77b55" d="m60.1 121.4c0 .8-.3 1.5-.9 2.1-.6.6-1.3.9-2.1.9-.8 0-1.5-.3-2.1-.9-.6-.6-.9-1.3-.9-2.1v-3.4h5.9v3.4z"/><path fill="#ee643c" d="m58.2 118.1v1.5c0 .8-.3 1.5-.9 2.1-.6.6-1.3.9-2.1.9-.3 0-.6-.1-.9-.2.1.4.4.8.7 1.2.6.6 1.3.9 2.1.9.8 0 1.5-.3 2.1-.9.6-.6.9-1.3.9-2.1v-3.4h-1.9"/><path fill="#f77b55" d="m40 137.9v12.6h120v-12.6h-120m112.6 9.4c-1 0-1.8-.8-1.8-1.8 0-1 .8-1.8 1.8-1.8 1 0 1.8.8 1.8 1.8 0 1-.8 1.8-1.8 1.8"/><g fill="#fff"><path d="m157.4 137.9h.9v2.7h-.9z"/><path d="m154.7 137.9h.9v2.7h-.9z"/><path d="m152.1 137.9h.9v2.7h-.9z"/><path d="m149.5 137.9h.9v2.7h-.9z"/><path d="m146.9 137.9h.9v2.7h-.9z"/><path d="m144.2 137.9h.9v2.7h-.9z"/><path d="m141.6 137.9h.9v2.7h-.9z"/><path d="m139 137.9h.9v2.7h-.9z"/><path d="m136.3 137.9h.9v2.7h-.9z"/><path d="m133.7 137.9h.9v2.7h-.9z"/><path d="m131.1 137.9h.9v2.7h-.9z"/><path d="m128.5 137.9h.9v2.7h-.9z"/><path d="m125.8 137.9h.9v2.7h-.9z"/><path d="m123.2 137.9h.9v2.7h-.9z"/><path d="m120.6 137.9h.9v2.7h-.9z"/><path d="m117.9 137.9h.9v2.7h-.9z"/><path d="m115.3 137.9h.9v2.7h-.9z"/><path d="m112.7 137.9h.9v2.7h-.9z"/><path d="m110.1 137.9h.9v2.7h-.9z"/><path d="m107.4 137.9h.9v2.7h-.9z"/><path d="m104.8 137.9h.9v2.7h-.9z"/><path d="m102.2 137.9h.9v2.7h-.9z"/><path d="m99.5 137.9h.9v2.7h-.9z"/><path d="m96.9 137.9h.9v2.7h-.9z"/><path d="m94.3 137.9h.9v2.7h-.9z"/><path d="m91.7 137.9h.9v2.7h-.9z"/><path d="m89 137.9h.9v2.7h-.9z"/><path d="m86.4 137.9h.9v2.7h-.9z"/><path d="m83.8 137.9h.9v2.7h-.9z"/><path d="m81.2 137.9h.9v2.7h-.9z"/><path d="m78.5 137.9h.9v2.7h-.9z"/><path d="m75.9 137.9h.9v2.7h-.9z"/><path d="m73.3 137.9h.9v2.7h-.9z"/><path d="m70.6 137.9h.9v2.7h-.9z"/><path d="m68 137.9h.9v2.7h-.9z"/><path d="m65.4 137.9h.9v2.7h-.9z"/><path d="m62.8 137.9h.9v2.7h-.9z"/><path d="m60.1 137.9h.9v2.7h-.9z"/><path d="m57.5 137.9h.9v2.7h-.9z"/><path d="m54.9 137.9h.9v2.7h-.9z"/><path d="m52.2 137.9h.9v2.7h-.9z"/><path d="m49.6 137.9h.9v2.7h-.9z"/><path d="m47 137.9h.9v2.7h-.9z"/><path d="m44.4 137.9h.9v2.7h-.9z"/><path d="m41.7 137.9h.9v2.7h-.9z"/></g><path fill="#ee643c" d="m40 150.5h120v2.7h-120z"/></svg>